<svg width="93" height="93" viewBox="0 0 93 93" fill="none" xmlns="http://www.w3.org/2000/svg">
<path d="M45.8687 86.7572L45.51 91.7375L44.9069 91.6941L45.0667 89.4763L42.4112 89.285L42.2514 91.5028L41.6484 91.4594L42.0071 86.4791L42.6101 86.5225L42.4497 88.75L45.1052 88.9413L45.2657 86.7138L45.8687 86.7572Z" fill="#231F20"/>
<path d="M32.1639 89.3011L32.2797 84.8456L32.225 84.8247L29.3398 88.2218L28.7477 87.9955L32.2429 83.9859L32.8259 84.2087L32.756 89.5274L32.1639 89.3011Z" fill="#231F20"/>
<path d="M24.7683 85.9632L27.1767 81.5892L27.7064 81.8808L25.298 86.2548L24.7683 85.9632Z" fill="#231F20"/>
<path d="M23.0043 78.8907L24.2336 79.8197L21.2232 83.8033L19.9394 82.8332C19.553 82.5412 19.2826 82.2115 19.1282 81.8443C18.9728 81.4783 18.9341 81.0915 19.012 80.6838C19.0889 80.2774 19.2831 79.868 19.5947 79.4557C19.9083 79.0407 20.2522 78.7393 20.6264 78.5515C20.9996 78.3649 21.3883 78.2981 21.7925 78.3509C22.1958 78.405 22.5997 78.5849 23.0043 78.8907ZM23.4278 79.8831L22.712 79.3421C22.3826 79.0932 22.0616 78.9505 21.749 78.9139C21.4365 78.8774 21.1383 78.9363 20.8546 79.0906C20.5709 79.245 20.3066 79.4843 20.0616 79.8085C19.8185 80.1301 19.6618 80.4466 19.5915 80.7581C19.5201 81.0709 19.5418 81.3684 19.6565 81.6507C19.7702 81.9342 19.9827 82.1936 20.2939 82.4288L21.0642 83.0109L23.4278 79.8831Z" fill="#231F20"/>
<path d="M18.4767 75.0178L14.8308 78.4294L12.7718 76.2291L13.1635 75.8626L14.8093 77.6214L16.0413 76.4687L14.502 74.8238L14.8937 74.4573L16.4329 76.1022L17.672 74.9428L15.9995 73.1554L16.3911 72.7889L18.4767 75.0178Z" fill="#231F20"/>
<path d="M10.0162 68.1361C10.4581 67.8496 10.8917 67.6818 11.317 67.6327C11.7423 67.5836 12.1325 67.6416 12.4874 67.8066C12.8424 67.9716 13.1357 68.2328 13.3674 68.5901C13.599 68.9475 13.7178 69.3218 13.7236 69.7132C13.7294 70.1046 13.6231 70.4844 13.4047 70.8527C13.1863 71.2209 12.8562 71.5483 12.4143 71.8348C11.9724 72.1213 11.5388 72.2891 11.1135 72.3382C10.6882 72.3873 10.298 72.3294 9.94309 72.1643C9.58814 71.9993 9.29482 71.7381 9.06315 71.3808C8.83148 71.0235 8.71273 70.6491 8.70692 70.2577C8.7011 69.8663 8.80739 69.4865 9.0258 69.1182C9.2442 68.75 9.57434 68.4226 10.0162 68.1361ZM10.3345 68.6271C9.97177 68.8623 9.70494 69.1215 9.53406 69.4047C9.3623 69.6865 9.27908 69.972 9.2844 70.261C9.28884 70.5487 9.37329 70.8194 9.53776 71.0731C9.70223 71.3268 9.91532 71.515 10.177 71.6378C10.4379 71.7593 10.7324 71.7998 11.0607 71.7593C11.3881 71.7175 11.7332 71.579 12.096 71.3438C12.4587 71.1086 12.726 70.8501 12.8978 70.5683C13.0687 70.2851 13.1519 69.9996 13.1474 69.7119C13.1421 69.4229 13.0572 69.1515 12.8927 68.8978C12.7283 68.6442 12.5156 68.4566 12.2548 68.3352C11.9931 68.2123 11.6985 68.1718 11.3711 68.2136C11.0428 68.2541 10.6973 68.3919 10.3345 68.6271Z" fill="#231F20"/>
<path d="M8.48353 58.4344L3.98052 60.9877L3.82918 60.3922L7.51353 58.3791L7.50152 58.3318L3.29827 58.3033L3.1301 57.6417L6.80966 55.6097L6.79765 55.5624L2.59919 55.5529L2.44785 54.9574L7.6235 55.0507L7.77725 55.6556L4.19237 57.7038L4.20198 57.7416L8.32978 57.8295L8.48353 58.4344Z" fill="#231F20"/>
<path d="M6.88557 50.0376L6.91361 50.6709L1.84421 49.0601L1.8166 48.4366L6.7238 46.3841L6.75184 47.0174L2.6187 48.694L2.62043 48.7329L6.88557 50.0376ZM4.92666 49.8901L4.81364 47.3375L5.34949 47.3138L5.46251 49.8664L4.92666 49.8901Z" fill="#231F20"/>
<path d="M2.45557 42.9106L1.92316 42.8454L2.37772 39.1282L2.91013 39.1934L2.71955 40.7519L7.1434 41.2928L7.07001 41.893L2.64615 41.352L2.45557 42.9106Z" fill="#231F20"/>
<path d="M5.80714 32.1869L5.62923 32.7648C5.45249 32.7478 5.28805 32.7627 5.13592 32.8094C4.98426 32.8545 4.84707 32.9245 4.72432 33.0194C4.6005 33.1122 4.49437 33.2249 4.40591 33.3576C4.31746 33.4902 4.24884 33.6357 4.20006 33.7942C4.1111 34.0831 4.10352 34.3674 4.17732 34.6469C4.2516 34.9248 4.4096 35.1767 4.65131 35.4025C4.8935 35.6267 5.2212 35.8025 5.63441 35.9297C6.04763 36.0569 6.41741 36.0959 6.74378 36.0467C7.07062 35.996 7.34293 35.8766 7.56069 35.6886C7.77893 35.4989 7.93253 35.2597 8.02149 34.9707C8.07027 34.8123 8.0954 34.6534 8.09686 34.4939C8.09832 34.3345 8.07475 34.1819 8.02613 34.0359C7.97645 33.888 7.9016 33.7527 7.8016 33.6301C7.70053 33.5054 7.57292 33.4007 7.41878 33.3158L7.59669 32.7379C7.82719 32.8565 8.02105 33.0029 8.17829 33.1772C8.33552 33.3514 8.45541 33.5448 8.53794 33.7573C8.61893 33.9693 8.66161 34.1925 8.66599 34.4268C8.67085 34.6596 8.63622 34.8964 8.56208 35.1372C8.43678 35.5442 8.22592 35.8755 7.92951 36.1312C7.63311 36.3869 7.27362 36.5492 6.85105 36.618C6.42848 36.6869 5.96555 36.6439 5.46224 36.4889C4.95892 36.3339 4.55194 36.1092 4.24129 35.8145C3.93064 35.5199 3.72468 35.1835 3.62341 34.8054C3.52214 34.4273 3.53416 34.0347 3.65946 33.6277C3.7336 33.387 3.83814 33.1717 3.97309 32.982C4.10851 32.7907 4.27011 32.6304 4.45787 32.5011C4.64407 32.3714 4.85118 32.2787 5.0792 32.223C5.30566 32.1669 5.54831 32.1549 5.80714 32.1869Z" fill="#231F20"/>
<path d="M10.5958 29.5508L6.1955 27.1909L6.48126 26.6581L8.44079 27.7089L9.69907 25.3627L7.73954 24.3118L8.02531 23.7789L12.4257 26.1388L12.1399 26.6716L10.1718 25.6162L8.91348 27.9624L10.8816 29.0179L10.5958 29.5508Z" fill="#231F20"/>
<path d="M13.8663 16.0009L17.8866 17.9249L17.928 17.8835L16.0041 13.8631L16.4523 13.4149L18.6866 18.2421L18.2452 18.6834L13.4181 16.4491L13.8663 16.0009Z" fill="#231F20"/>
<path d="M19.9314 10.6113L22.9418 14.595L22.4594 14.9595L19.449 10.9758L19.9314 10.6113Z" fill="#231F20"/>
<path d="M27.1082 11.8869L25.7584 12.6301L23.35 8.25614L24.7596 7.48C25.1839 7.24637 25.5952 7.13402 25.9934 7.14295C26.3909 7.15045 26.7599 7.27293 27.1003 7.5104C27.44 7.74644 27.7344 8.09085 27.9837 8.54362C28.2346 8.99924 28.3694 9.43619 28.3882 9.85447C28.4062 10.2713 28.3086 10.6535 28.0955 11.0009C27.8815 11.347 27.5524 11.6423 27.1082 11.8869ZM26.0293 11.8686L26.8153 11.4359C27.1769 11.2367 27.4382 11.0019 27.5992 10.7315C27.7601 10.461 27.828 10.1648 27.8029 9.84278C27.7777 9.52078 27.6672 9.18181 27.4712 8.82585C27.2767 8.47275 27.0517 8.20051 26.796 8.00915C26.5396 7.81637 26.2591 7.71474 25.9546 7.70428C25.6493 7.69239 25.3258 7.78052 24.9841 7.96868L24.1384 8.43436L26.0293 11.8686Z" fill="#231F20"/>
<path d="M32.4918 9.33404L30.865 4.61328L33.7141 3.63149L33.8888 4.1386L31.6114 4.9234L32.1611 6.5185L34.291 5.78454L34.4657 6.29165L32.3358 7.02561L32.8887 8.62993L35.203 7.83242L35.3777 8.33954L32.4918 9.33404Z" fill="#231F20"/>
<path d="M42.2267 4.41849C42.3079 4.93882 42.2841 5.40314 42.1554 5.81148C42.0267 6.21981 41.8146 6.55233 41.519 6.80904C41.2235 7.06574 40.8654 7.22694 40.4446 7.29263C40.0239 7.35831 39.6337 7.31395 39.274 7.15954C38.9142 7.00512 38.6109 6.75308 38.3638 6.40342C38.1167 6.05375 37.9526 5.61875 37.8714 5.09843C37.7901 4.57811 37.8139 4.11378 37.9426 3.70545C38.0713 3.29711 38.2835 2.96459 38.579 2.70789C38.8745 2.45118 39.2326 2.28998 39.6534 2.2243C40.0741 2.15861 40.4644 2.20297 40.8241 2.35739C41.1838 2.5118 41.4872 2.76384 41.7342 3.11351C41.9813 3.46318 42.1454 3.89817 42.2267 4.41849ZM41.6485 4.50875C41.5818 4.08157 41.4541 3.7322 41.2653 3.46062C41.0781 3.1888 40.8514 2.99634 40.5854 2.88324C40.3209 2.76989 40.0393 2.73653 39.7406 2.78316C39.4419 2.82979 39.1831 2.94752 38.9642 3.13634C38.7469 3.3249 38.5897 3.57728 38.4926 3.89348C38.3972 4.20943 38.3828 4.58099 38.4495 5.00817C38.5162 5.43535 38.6431 5.78485 38.8303 6.05668C39.0191 6.32825 39.2458 6.52071 39.5102 6.63406C39.7763 6.74716 40.0587 6.78039 40.3574 6.73376C40.6561 6.68713 40.9141 6.56953 41.1314 6.38097C41.3504 6.19215 41.5075 5.93977 41.603 5.62382C41.7 5.30762 41.7152 4.93593 41.6485 4.50875Z" fill="#231F20"/>
<path d="M51.7091 6.97828L51.2158 1.82536L51.8212 1.93018L52.1555 6.11532L52.2035 6.12364L53.9448 2.29792L54.6175 2.4144L54.971 6.60285L55.0191 6.61117L56.7411 2.78213L57.3465 2.88696L55.1493 7.57398L54.5343 7.46749L54.1273 3.35885L54.0889 3.3522L52.3241 7.08478L51.7091 6.97828Z" fill="#231F20"/>
<path d="M60.0273 8.94591L59.4377 8.71308L62.977 4.74233L63.5575 4.97158L63.4288 10.2892L62.8392 10.0563L62.9953 5.59884L62.959 5.58451L60.0273 8.94591ZM60.9614 7.21775L63.3379 8.15625L63.1409 8.65513L60.7644 7.71664L60.9614 7.21775Z" fill="#231F20"/>
<path d="M68.3415 7.80994L68.6182 7.35044L71.8263 9.28236L71.5496 9.74186L70.2045 8.93186L67.9053 12.7498L67.3873 12.4379L69.6865 8.61993L68.3415 7.80994Z" fill="#231F20"/>
<path d="M76.7639 15.2461L76.309 14.8479C76.3966 14.6935 76.4502 14.5373 76.4696 14.3793C76.4903 14.2225 76.4824 14.0686 76.4459 13.9179C76.4116 13.767 76.352 13.6241 76.267 13.4892C76.1821 13.3543 76.0772 13.2323 75.9524 13.1231C75.725 12.9239 75.4686 12.801 75.1833 12.7543C74.8992 12.7087 74.6047 12.7502 74.3 12.8787C73.9964 13.0083 73.7023 13.2358 73.4175 13.5611C73.1328 13.8864 72.9462 14.2081 72.8579 14.5261C72.7709 14.8452 72.7687 15.1425 72.8516 15.4181C72.9356 15.6947 73.0914 15.9326 73.3189 16.1317C73.4436 16.2409 73.5784 16.3287 73.7234 16.3951C73.8683 16.4615 74.0173 16.5022 74.1704 16.5174C74.3257 16.5324 74.4798 16.5193 74.6325 16.478C74.7876 16.4366 74.9353 16.3629 75.0757 16.2568L75.5307 16.6551C75.3283 16.8171 75.1155 16.9343 74.8923 17.0068C74.669 17.0792 74.4436 17.1097 74.2159 17.0984C73.9893 17.0858 73.7681 17.0337 73.5524 16.942C73.3379 16.8515 73.1359 16.7232 72.9463 16.5573C72.6259 16.2768 72.4094 15.9491 72.297 15.5742C72.1845 15.1992 72.183 14.8048 72.2926 14.3909C72.4022 13.977 72.6304 13.5719 72.9772 13.1757C73.3241 12.7794 73.6954 12.4996 74.0912 12.3362C74.4869 12.1729 74.878 12.1221 75.2646 12.1839C75.6511 12.2458 76.0046 12.417 76.325 12.6974C76.5146 12.8634 76.6684 13.0467 76.7866 13.2473C76.906 13.449 76.9863 13.6619 77.0277 13.8861C77.0702 14.109 77.0703 14.336 77.0281 14.5668C76.9869 14.7965 76.8989 15.0229 76.7639 15.2461Z" fill="#231F20"/>
<path d="M77.2167 20.6937L81.1669 17.6394L81.5367 18.1177L79.7777 19.4778L81.4062 21.5841L83.1653 20.224L83.5351 20.7023L79.585 23.7566L79.2151 23.2782L80.9819 21.9122L79.3533 19.8059L77.5866 21.172L77.2167 20.6937Z" fill="#231F20"/>
<path d="M88.2523 29.2088L84.8552 32.094L84.8761 32.1486L89.3316 32.0328L89.5579 32.6249L84.2392 32.6948L84.0163 32.1118L88.026 28.6167L88.2523 29.2088Z" fill="#231F20"/>
<path d="M90.6976 36.9455L85.8322 38.0681L85.6963 37.4789L90.5616 36.3563L90.6976 36.9455Z" fill="#231F20"/>
<path d="M86.604 42.9769L86.4763 41.4413L91.4523 41.0276L91.5856 42.6311C91.6258 43.1138 91.5605 43.5352 91.3898 43.8951C91.2208 44.255 90.9584 44.5418 90.6027 44.7557C90.2486 44.9695 89.814 45.0978 89.2989 45.1406C88.7805 45.1837 88.3266 45.1285 87.9371 44.9749C87.5492 44.8212 87.2401 44.5762 87.0099 44.2398C86.7813 43.9032 86.646 43.4823 86.604 42.9769ZM87.0609 41.9994L87.1353 42.8936C87.1695 43.305 87.2772 43.6394 87.4584 43.8967C87.6397 44.154 87.8824 44.3369 88.1866 44.4453C88.4908 44.5537 88.8454 44.5911 89.2504 44.5575C89.6521 44.5241 89.9925 44.4297 90.2715 44.2744C90.5521 44.1189 90.7594 43.9043 90.8932 43.6306C91.0286 43.3568 91.0802 43.0255 91.0479 42.6367L90.9679 41.6746L87.0609 41.9994Z" fill="#231F20"/>
<path d="M86.7381 48.9332L91.7118 49.3745L91.4454 52.3762L90.9111 52.3288L91.124 49.9294L89.4435 49.7803L89.2444 52.0242L88.7101 51.9768L88.9092 49.7329L87.2189 49.5829L87.0026 52.0211L86.4683 51.9737L86.7381 48.9332Z" fill="#231F20"/>
<path d="M87.2532 59.8268C86.7451 59.6886 86.3308 59.4775 86.0106 59.1933C85.6903 58.9092 85.4733 58.5798 85.3596 58.2053C85.2458 57.8307 85.2448 57.438 85.3565 57.027C85.4683 56.6161 85.668 56.278 85.9558 56.0126C86.2435 55.7472 86.5974 55.5731 87.0175 55.4902C87.4375 55.4074 87.9016 55.435 88.4098 55.5732C88.918 55.7114 89.3322 55.9225 89.6525 56.2067C89.9727 56.4908 90.1897 56.8202 90.3035 57.1947C90.4172 57.5693 90.4183 57.962 90.3065 58.373C90.1948 58.7839 89.995 59.1221 89.7073 59.3874C89.4195 59.6528 89.0656 59.8269 88.6456 59.9098C88.2255 59.9926 87.7614 59.965 87.2532 59.8268ZM87.4068 59.2622C87.824 59.3756 88.1951 59.4016 88.52 59.34C88.8446 59.28 89.1128 59.1517 89.3246 58.9549C89.536 58.7597 89.6814 58.5163 89.7607 58.2246C89.84 57.9328 89.8382 57.6485 89.7551 57.3716C89.6717 57.0962 89.5054 56.8497 89.2563 56.6321C89.0068 56.416 88.6735 56.2513 88.2563 56.1378C87.8391 56.0244 87.4682 55.9977 87.1436 56.0576C86.8187 56.1192 86.5505 56.2476 86.3391 56.4427C86.1272 56.6395 85.9817 56.8837 85.9023 57.1754C85.823 57.4672 85.8251 57.7507 85.9086 58.0261C85.9916 58.303 86.1579 58.5495 86.4074 58.7656C86.6564 58.9832 86.9896 59.1487 87.4068 59.2622Z" fill="#231F20"/>
<path d="M81.0465 67.4394L85.9522 69.0918L85.6094 69.6018L81.6522 68.1991L81.625 68.2396L84.4071 71.3905L84.0263 71.957L80.0581 70.5706L80.0309 70.611L82.8239 73.7457L82.4812 74.2557L79.0988 70.337L79.447 69.819L83.364 71.1241L83.3858 71.0917L80.6983 67.9574L81.0465 67.4394Z" fill="#231F20"/>
<path d="M75.8555 74.2304L76.3087 73.7871L78.4894 78.6387L78.0433 79.0751L73.2411 76.7876L73.6943 76.3443L77.7 78.3058L77.7279 78.2785L75.8555 74.2304ZM77.0521 75.7884L75.2254 77.575L74.8504 77.1916L76.677 75.4049L77.0521 75.7884Z" fill="#231F20"/>
<path d="M73.4995 82.2844L73.806 82.7245L70.7331 84.8649L70.4266 84.4248L71.7149 83.5274L69.1676 79.8703L69.6637 79.5247L72.2111 83.1818L73.4995 82.2844Z" fill="#231F20"/>
<path d="M63.2741 86.939L63.8233 86.6861C63.9285 86.8292 64.0493 86.9418 64.1855 87.024C64.3203 87.1069 64.464 87.1624 64.6165 87.1906C64.7683 87.221 64.9231 87.2249 65.0809 87.2023C65.2387 87.1798 65.3929 87.1338 65.5435 87.0645C65.8181 86.9381 66.035 86.7542 66.194 86.5127C66.3516 86.272 66.4339 85.9863 66.4409 85.6556C66.4465 85.3256 66.3589 84.9642 66.1781 84.5715C65.9973 84.1788 65.7797 83.8772 65.5254 83.6668C65.2696 83.4571 64.9991 83.3339 64.7137 83.297C64.4269 83.2609 64.1461 83.306 63.8715 83.4324C63.7209 83.5017 63.5857 83.589 63.466 83.6942C63.3462 83.7995 63.2482 83.9189 63.1719 84.0524C63.0948 84.1881 63.0439 84.3341 63.0192 84.4904C62.9937 84.6488 63.0008 84.8138 63.0404 84.9852L62.4911 85.2381C62.4257 84.9872 62.4056 84.7451 62.4305 84.5118C62.4555 84.2784 62.5196 84.0601 62.6229 83.8569C62.7269 83.6551 62.8647 83.4745 63.0364 83.3149C63.2066 83.1561 63.4061 83.0239 63.635 82.9186C64.0218 82.7405 64.4093 82.6767 64.7975 82.727C65.1857 82.7773 65.5464 82.937 65.8795 83.2059C66.2127 83.4748 66.4894 83.8485 66.7096 84.3268C66.9298 84.8052 67.0337 85.2584 67.0214 85.6863C67.009 86.1143 66.8958 86.4921 66.6816 86.8197C66.4674 87.1474 66.1669 87.4002 65.78 87.5783C65.5512 87.6837 65.3211 87.7493 65.0897 87.7753C64.8568 87.802 64.6296 87.7885 64.4081 87.7348C64.1872 87.6826 63.98 87.5901 63.7865 87.4573C63.5936 87.326 63.4228 87.1532 63.2741 86.939Z" fill="#231F20"/>
<path d="M58.1157 85.129L59.2921 89.9816L58.7045 90.1241L58.1806 87.9631L55.5932 88.5904L56.1171 90.7513L55.5294 90.8938L54.3531 86.0411L54.9407 85.8987L55.4668 88.0691L58.0543 87.4418L57.5281 85.2714L58.1157 85.129Z" fill="#231F20"/>
<path d="M37.7773 90.8043L38.7378 85.9043L39.3312 86.0207L38.3706 90.9206L37.7773 90.8043Z" fill="#231F20"/>
</svg>
